Coordinates
version=1
nRows=6
nColumns=63
inDegrees=yes

Units are S.I. units (second, meters, Newtons, ...)
If the header above contains a line with 'inDegrees', this indicates whether rotational values are in degrees (yes) or radians (no).

endheader
time	pelvis_tilt	pelvis_list	pelvis_rotation	pelvis_tx	pelvis_ty	pelvis_tz	hip_flexion_r	hip_adduction_r	hip_rotation_r	knee_angle_r	knee_angle_r_beta	ankle_angle_r	subtalar_angle_r	mtp_angle_r	hip_flexion_l	hip_adduction_l	hip_rotation_l	knee_angle_l	knee_angle_l_beta	ankle_angle_l	subtalar_angle_l	mtp_angle_l	L5_S1_Flex_Ext	L5_S1_Lat_Bending	L5_S1_axial_rotation	L4_L5_Flex_Ext	L4_L5_Lat_Bending	L4_L5_axial_rotation	L3_L4_Flex_Ext	L3_L4_Lat_Bending	L3_L4_axial_rotation	L2_L3_Flex_Ext	L2_L3_Lat_Bending	L2_L3_axial_rotation	L1_L2_Flex_Ext	L1_L2_Lat_Bending	L1_L2_axial_rotation	L1_T12_Flex_Ext	L1_T12_Lat_Bending	L1_T12_axial_rotation	Abs_r3	Abs_r2	Abs_r1	Abs_t1	Abs_t2	neck_flexion	neck_bending	neck_rotation	arm_flex_r	arm_add_r	arm_rot_r	elbow_flex_r	pro_sup_r	wrist_flex_r	wrist_dev_r	arm_flex_l	arm_add_l	arm_rot_l	elbow_flex_l	pro_sup_l	wrist_flex_l	wrist_dev_l
      0.03333333	      5.40951551	      2.73375012	    175.41902307	      2.42185213	      0.89383326	      0.54216049	     12.23996093	      2.52249922	     -6.19769615	     21.20802178	      0.37014981	     19.08660586	     -8.27534128	      0.00000000	      9.24949882	     -3.33764802	      1.26820621	     18.72048449	      0.32673409	     18.07343571	    -17.90042514	      0.00000000	     -0.00511353	      0.10518846	      0.09956248	     -0.00949634	      0.13990065	      0.10578514	     -0.00840103	      0.25575522	      0.10578514	     -0.00584426	      0.25575522	      0.08711717	     -0.00474843	      0.21450031	      0.08089452	     -0.00292187	      0.16293692	      0.07467186	     -0.03652547	      1.18991289	      0.55373665	      0.00000000	      0.00000000	     -0.00000000	      0.00000000	      0.00000000	     -7.23854913	     -5.78230268	      9.84536177	     22.84542091	     28.30020871	      0.00000000	      5.26343637	     -1.91470964	    -10.78250042	     54.72992572	     14.79134474	     52.08259205	      0.00000000	      5.26343637
      0.06666667	      5.54195160	      1.26222026	    176.39742067	      2.42111325	      0.89341373	      0.54147099	     11.26613200	      1.88097099	     -2.95407427	     18.89883618	      0.32984692	     18.02960860	    -14.49930013	      0.00000000	      9.57510410	     -1.69022980	     -0.65589846	     18.12784952	      0.31639066	     17.42871968	    -17.69517814	      0.00000000	     -0.00442623	     -0.02208572	     -0.27561514	     -0.00821995	     -0.02937401	     -0.29284109	     -0.00727185	     -0.05369922	     -0.29284109	     -0.00505874	     -0.05369922	     -0.24116325	     -0.00411019	     -0.04503720	     -0.22393730	     -0.00252915	     -0.03421078	     -0.20671135	     -0.03161610	     -0.24983810	     -1.53288872	      0.00000000	      0.00000000	     -0.00000000	      0.00000000	      0.00000000	     -5.13859322	     -7.49774115	     21.61473444	     20.98386129	     32.07328552	      0.00000000	      5.21161866	     -3.21478724	    -11.60108127	     51.96086984	     16.06961341	     50.84315693	      0.00000000	      5.21161866
      0.10000000	      5.62130728	      0.05885970	    177.37433241	      2.42024692	      0.89321550	      0.54125708	     10.05592981	      0.96067040	     -2.40552695	     16.44482353	      0.28701632	     17.84333406	    -16.39252147	      0.00000000	      9.75941607	     -0.24788430	     -2.17387545	     17.61448252	      0.30743072	     16.80588667	    -17.63352241	      0.00000000	     -0.00227749	     -0.12622624	     -0.63722100	     -0.00422953	     -0.16788090	     -0.67704731	     -0.00374169	     -0.30690647	     -0.67704731	     -0.00260295	     -0.30690647	     -0.55756837	     -0.00211488	     -0.25740054	     -0.51774206	     -0.00130136	     -0.19552444	     -0.47791575	     -0.01626790	     -1.42789644	     -3.54403202	      0.00000000	      0.00000000	     -0.00000000	      0.00000000	      0.00000000	     -2.15710023	     -9.72296528	     40.24652453	     19.21392549	     39.36929846	      0.00000000	      5.13393900	     -5.41808890	    -11.81694008	     42.65862036	     17.88965656	     47.86139269	      0.00000000	      5.13393900
      0.13333333	      5.61272326	     -0.72691101	    178.09408684	      2.41949633	      0.89331274	      0.54103336	      8.62623381	      0.40362240	     -2.05789490	     13.74049933	      0.23981695	     17.39042222	    -17.47554054	      0.00000000	      9.80666003	      0.76498808	     -3.03501065	     17.32394699	      0.30235991	     16.30407241	    -17.79660573	      0.00000000	     -0.00188198	     -0.19088782	     -0.86740003	     -0.00349502	     -0.25388080	     -0.92161253	     -0.00309190	     -0.46412465	     -0.92161253	     -0.00215091	     -0.46412465	     -0.75897503	     -0.00174761	     -0.38925845	     -0.70476253	     -0.00107536	     -0.29568524	     -0.65055002	     -0.01344278	     -2.15936122	     -4.82421875	      0.00000000	      0.00000000	     -0.00000000	      0.00000000	      0.00000000	     -0.04875213	    -10.95798987	     52.66180118	     18.81294292	     44.64623868	      0.00000000	      5.09105548	     -6.75971161	    -11.88892032	     37.29379944	     19.04207816	     47.28404904	      0.00000000	      5.09105548
      0.16666667	      5.52713817	     -1.16269450	    178.56129607	      2.41897076	      0.89358597	      0.54076182	      7.28748429	      0.13276260	     -1.99286543	     11.32774747	      0.19770649	     16.87138954	    -17.82074235	      0.00000000	      9.72368146	      1.38168083	     -3.19760191	     17.17934525	      0.29983614	     16.10045792	    -18.02193926	      0.00000000	     -0.00202206	     -0.22460351	     -0.97074803	     -0.00375516	     -0.29872266	     -1.03141978	     -0.00332204	     -0.54610097	     -1.03141978	     -0.00231101	     -0.54610097	     -0.84940453	     -0.00187768	     -0.45801147	     -0.78873277	     -0.00115540	     -0.34791083	     -0.72806102	     -0.01444335	     -2.54075979	     -5.39900932	      0.00000000	      0.00000000	     -0.00000000	      0.00000000	      0.00000000	      1.24690652	    -11.65792846	     60.75198455	     18.93980020	     48.02571275	      0.00000000	      5.06337529	     -7.20002618	    -12.07023823	     35.96095746	     19.48822972	     48.20357004	      0.00000000	      5.06337529
      0.20000000	      5.47143068	     -1.42953783	    178.52929009	      2.41900587	      0.89379302	      0.54018071	      6.55572621	     -0.01147125	     -1.57597067	      9.91882392	      0.17311614	     16.52919218	    -17.91339597	      0.00000000	      9.62783757	      1.70756562	     -3.26653492	     17.06763527	      0.29788643	     16.06870272	    -18.15147539	      0.00000000	     -0.00143097	     -0.24458060	     -0.92210258	     -0.00265745	     -0.32529219	     -0.97973399	     -0.00235093	     -0.59467326	     -0.97973399	     -0.00163545	     -0.59467326	     -0.80683976	     -0.00132879	     -0.49874875	     -0.74920835	     -0.00081765	     -0.37885534	     -0.69157693	     -0.01022125	     -2.76674461	     -5.12845792	      0.00000000	      0.00000000	     -0.00000000	      0.00000000	      0.00000000	      1.22470388	    -11.84353870	     61.09116965	     19.37673520	     48.15539988	      0.00000000	      5.06203666	     -7.16517440	    -12.22085218	     36.00124436	     19.53220604	     48.29572612	      0.00000000	      5.06203666
